<?xml version="1.0" encoding="utf-8"?>
<!-- Generated by IcoMoon.io -->
<!DOCTYPE svg PUBLIC "-//W3C//DTD SVG 1.1//EN" "http://www.w3.org/Graphics/SVG/1.1/DTD/svg11.dtd">
<svg version="1.1" xmlns="http://www.w3.org/2000/svg" xmlns:xlink="http://www.w3.org/1999/xlink" width="128" height="32" viewBox="0 0 128 32">
<g transform="translate(0 0)">
	<path d="M31.12 31.12c-1.174 1.174-3.077 1.174-4.25 0l-5.304-5.304c-2.18 1.399-4.758 2.232-7.541 2.232-7.745 0-14.024-6.278-14.024-14.024s6.279-14.024 14.024-14.024c7.746 0 14.024 6.278 14.024 14.024 0 2.782-0.834 5.361-2.232 7.542l5.304 5.304c1.174 1.174 1.174 3.076 0 4.249zM14.024 4.007c-5.532 0-10.017 4.484-10.017 10.017s4.485 10.017 10.017 10.017c5.533 0 10.017-4.484 10.017-10.017s-4.484-10.017-10.017-10.017z" fill="#000000" />
</g>
<g transform="translate(48 0)">
	<path d="M30 0h-14c-1.105 0-2 0.895-2 2s0.895 2 2 2h12v24h-12c-1.105 0-2 0.895-2 2s0.895 2 2 2h14c1.105 0 2-0.895 2-2v-28c0-1.105-0.895-2-2-2zM14 24l8-8-8-8v6h-12.213c-0.988 0-1.787 0.896-1.787 2s0.799 2 1.787 2h12.213v6z" fill="#000000" />
</g>
<g transform="translate(96 0)">
	<path d="M30 14c-1.105 0-2 0.896-2 2v12h-24v-12c0-1.104-0.894-2-2-2s-2 0.896-2 2v14c0 1.105 0.894 2 2 2h28c1.105 0 2-0.895 2-2v-14c0-1.104-0.895-2-2-2zM18 14v-12.244c0-0.97-0.895-1.756-2-1.756s-2 0.786-2 1.756v12.244h-6l8 8 8-8h-6z" fill="#000000" />
</g>
</svg>
